<?xml version="1.0" encoding="utf-8"?>
<!-- Generator: Adobe Illustrator 21.1.0, SVG Export Plug-In . SVG Version: 6.00 Build 0)  -->
<svg version="1.1" id="Layer_1" xmlns="http://www.w3.org/2000/svg" xmlns:xlink="http://www.w3.org/1999/xlink" x="0px" y="0px"
	 viewBox="0 0 512 512" style="enable-background:new 0 0 512 512;" xml:space="preserve">
<style type="text/css">
	.st0{fill:#FF0066;}
	.st1{fill:#CCFF80;}
	.st2{font-family:'Poppins-MediumItalic';}
	.st3{font-size:50px;}
</style>
<rect class="st0" width="512" height="512"/>
<g>
	<g>
		<path class="st1" d="M437.6,327l-68.8-57c-3.2-2.7-7.7-3.2-11.4-1.5c-3.8,1.8-6.2,5.5-6.2,9.7v23.5h-35.1
			c-31.9,0-58.8-26.4-58.8-57.8c0-27.5-8.7-53.4-25.1-74.9c-23.6-31.2-61.1-49.9-100.3-49.9h-23.7c-18.6,0-33.7,15-33.7,33.5
			s15.1,33.5,33.7,33.5h23.7c32,0,58.1,25.9,58.1,57.8c0,27.5,8.7,53.4,25.1,74.9c23.6,31.2,61.4,49.9,101.1,49.9h35.1v23.5
			c0,4.2,2.4,7.9,6.2,9.7c1.5,0.7,3,1,4.6,1c2.5,0,4.9-0.8,6.9-2.5l68.8-57c2.5-2,3.9-5,3.9-8.2C441.5,332.1,440.1,329.1,437.6,327z
			"/>
	</g>
</g>
<g>
	<g>
		<path class="st1" d="M197.8,331.8c-11.1-14.5-19.1-30.7-24-48c-10.6,11-25.5,17.9-42,17.9h-23.7c-18.6,0-33.7,15-33.7,33.5
			c0,18.5,15.1,33.5,33.7,33.5h23.7c27.5,0,54.1-9.2,75.8-25.4C204.2,339.7,200.9,335.8,197.8,331.8z"/>
	</g>
</g>
<g>
	<g>
		<path class="st1" d="M437.6,144.5l-68.8-57c-3.2-2.7-7.7-3.2-11.4-1.5c-3.8,1.8-6.2,5.5-6.2,9.7v23.5h-35.1
			c-27.8,0-54.7,9.2-76.5,25.5c3.4,3.7,6.7,7.5,9.7,11.5c11.2,14.6,19.3,31,24.1,48.4c10.8-11.3,26-18.4,42.6-18.4h35.1v23.5
			c0,4.1,2.4,7.9,6.2,9.7c3.8,1.8,8.2,1.2,11.4-1.5l68.8-57c2.5-2,3.9-5,3.9-8.2C441.5,149.6,440.1,146.6,437.6,144.5z"/>
	</g>
</g>
<text transform="matrix(1 0 0 1 75.437 455.8157)" class="st1 st2 st3">Shuffle Choice</text>
</svg>
